<svg xmlns="http://www.w3.org/2000/svg" viewBox="0 0 96 96" role="img" aria-label="HubConnect"><defs><linearGradient id="hcg" gradientUnits="userSpaceOnUse" x1="0" y1="0" x2="96" y2="96"><stop offset="0" stop-color="#ffd23e"/><stop offset="1" stop-color="#f2b600"/></linearGradient></defs><rect width="96" height="96" rx="24" fill="url(#hcg)"/><g stroke="#1d1d1b" stroke-width="4.4" stroke-linecap="round"><line x1="48" y1="48" x2="48" y2="22"/><line x1="48" y1="48" x2="70.5" y2="35"/><line x1="48" y1="48" x2="70.5" y2="61"/><line x1="48" y1="48" x2="48" y2="74"/><line x1="48" y1="48" x2="25.5" y2="61"/><line x1="48" y1="48" x2="25.5" y2="35"/></g><g fill="#1d1d1b"><circle cx="48" cy="22" r="6.2"/><circle cx="70.5" cy="35" r="6.2"/><circle cx="70.5" cy="61" r="6.2"/><circle cx="48" cy="74" r="6.2"/><circle cx="25.5" cy="61" r="6.2"/><circle cx="25.5" cy="35" r="6.2"/><circle cx="48" cy="48" r="9.6"/></g><g fill="url(#hcg)"><circle cx="48" cy="22" r="2.4"/><circle cx="70.5" cy="35" r="2.4"/><circle cx="70.5" cy="61" r="2.4"/><circle cx="48" cy="74" r="2.4"/><circle cx="25.5" cy="61" r="2.4"/><circle cx="25.5" cy="35" r="2.4"/><circle cx="48" cy="48" r="4"/></g></svg>
